<?xml version="1.0" encoding="iso-8859-1"?>
<!DOCTYPE svg PUBLIC "-//W3C//DTD SVG 1.1//EN" "http://www.w3.org/Graphics/SVG/1.1/DTD/svg11.dtd">
<svg fill="#000000" height="800px" width="800px" version="1.1" id="Capa_1" xmlns="http://www.w3.org/2000/svg" xmlns:xlink="http://www.w3.org/1999/xlink" 
	 viewBox="0 0 470 470" xml:space="preserve">
<g>
	<path d="M462.5,407.326h-2.283c-1.339-27.771-10.179-51.094-26.373-69.385c-17.089-19.304-42.295-32.124-72.893-37.075
		c-77.405-12.526-111.937-31.304-111.937-109.462V18.043c0-1.991-0.792-3.9-2.2-5.307c-1.406-1.404-3.313-2.193-5.3-2.193
		c-0.01,0-229.233,0.294-229.233,0.294c-4.138,0.005-7.49,3.361-7.49,7.5v356.144c-1.05,0.407-2.009,1.041-2.791,1.884
		c-1.419,1.531-2.136,3.584-1.979,5.666l4.77,63.022v6.904c0,4.143,3.358,7.5,7.5,7.5c4.036,0,7.319-3.19,7.484-7.187H36.58
		c0.166,3.996,3.448,7.187,7.484,7.187s7.319-3.19,7.484-7.187h16.804c0.166,3.996,3.448,7.187,7.484,7.187s7.319-3.19,7.484-7.187
		h16.805c0.166,3.996,3.448,7.187,7.484,7.187s7.319-3.19,7.484-7.187h16.805c0.166,3.996,3.448,7.187,7.484,7.187
		c4.142,0,7.5-3.357,7.5-7.5v-30.162l85.708,28.392v1.771c0,4.143,3.358,7.5,7.5,7.5c4.036,0,7.319-3.19,7.484-7.187h16.805
		c0.166,3.996,3.448,7.187,7.484,7.187s7.319-3.19,7.484-7.187h16.804c0.166,3.996,3.448,7.187,7.484,7.187s7.319-3.19,7.484-7.187
		h16.805c0.166,3.996,3.448,7.187,7.484,7.187s7.319-3.19,7.484-7.187h16.804c0.166,3.996,3.448,7.187,7.484,7.187
		s7.319-3.19,7.484-7.187h16.805c0.166,3.996,3.448,7.187,7.484,7.187s7.319-3.19,7.484-7.187h16.804
		c0.166,3.996,3.448,7.187,7.484,7.187s7.319-3.19,7.484-7.187h16.805c0.166,3.996,3.448,7.187,7.484,7.187
		c4.142,0,7.5-3.357,7.5-7.5v-37.131C470,410.683,466.642,407.326,462.5,407.326z M234.015,140.955h-22.199
		c-14.042,0-25.467,11.425-25.467,25.467v61.087c0,5.771-4.695,10.467-10.466,10.467h-36.5c-4.14,0-7.497,3.355-7.5,7.495
		c0,4.147,3.358,7.505,7.5,7.505h36.5c14.042,0,25.466-11.425,25.466-25.467v-61.087c0-5.771,4.695-10.467,10.467-10.467h22.199
		v35.449c0,43.015,10.391,71.975,32.701,91.139c23.029,19.781,57.75,27.613,91.839,33.13c53.42,8.646,83.951,41.071,86.665,91.653
		H241.301l-99.56-32.98c-0.761-0.252-1.557-0.381-2.358-0.381H94.78H19.791v-85.056h28.278c21.623,0,39.213,17.591,39.213,39.213
		v23.343c0,4.142,3.357,7.499,7.498,7.5c4.144,0,7.502-3.357,7.502-7.5v-23.343c0-29.894-24.32-54.213-54.213-54.213H19.791v-20.934
		h89.591c4.142,0,7.5-3.357,7.5-7.5c-0.003-4.145-3.36-7.5-7.5-7.5H19.791V25.828l214.224-0.274V140.955z M241.301,437.27
		l-99.56-32.979c-2.287-0.76-4.797-0.371-6.75,1.039s-3.109,3.672-3.109,6.08v25.86H19.245l-3.656-48.306h122.584l99.56,32.98
		c0.761,0.252,1.557,0.381,2.358,0.381h212.827H455v14.944H241.301z"/>
</g>
</svg>